<?xml version="1.0" encoding="UTF-8"?>
<svg width="183.97" height="40" version="1.1" xmlns="http://www.w3.org/2000/svg">
 <g transform="matrix(.076227 0 0 .076227 -.0022868 .0028204)" fill="#4fe070">
  <path transform="translate(-5869.7,3483.6)" d="m6651-2958.9v-524.65h230.77a276.34 276.34 0 0 1 59.429 6.112c18.667 4.1 34.907 11.465 48.8 22.266 13.895 10.714 24.869 25.615 32.98 44.528s12.226 43.191 12.226 72.908c0 10.542-2.172 21.846-6.444 33.814a129.08 129.08 0 0 1-17.489 33.065 106.49 106.49 0 0 1-26.881 25.443 66.29 66.29 0 0 1-34.4 11.132 99.641 99.641 0 0 1 38.346 11.047 121.12 121.12 0 0 1 33.986 26.118 140.57 140.57 0 0 1 24.767 37.843 107.91 107.91 0 0 1 9.55 45.952q0 42.931-12.886 72.575c-8.544 19.749-20.266 35.656-35.08 47.866s-32.146 20.854-51.98 26.12a246.16 246.16 0 0 1-63.441 7.866zm100.45-89.058h141.87a51.074 51.074 0 0 0 24.366-6.114 66.584 66.584 0 0 0 20.091-16.481 83.753 83.753 0 0 0 13.635-22.941 65.768 65.768 0 0 0 4.948-25.443q0-26.492-19.676-44.443c-13.059-11.895-31.139-17.921-54.063-17.921h-131.17zm0-222.16h123.29q15.08 0 26.12-5.769a58.1 58.1 0 0 0 18.668-15.162 66.745 66.745 0 0 0 11.465-21.258 75 75 0 0 0 3.939-23.43 60.19 60.19 0 0 0-4.271-22.351 62.985 62.985 0 0 0-11.463-18.755 61.269 61.269 0 0 0-16.913-12.972 43.558 43.558 0 0 0-20.424-5.02h-130.41zm781.46 311.13-192.34-255.88h106.05a81.45 81.45 0 0 0 28.2-5.351 72.7 72.7 0 0 0 26.12-16.5 91.1 91.1 0 0 0 18.913-27.615q7.422-16.439 7.45-38.676a154.35 154.35 0 0 0-2.833-27.2 88.2 88.2 0 0 0-11.392-30.132q-8.544-14.325-24.278-24.364c-10.456-6.7-24.521-10.041-42.1-10.041h-158.86v435.76h-100.36v-524.65h259.41c26.781 0 51.3 4.359 73.569 13.234a163.99 163.99 0 0 1 57.084 37.236q23.733 23.991 37.007 57.344 13.311 33.268 13.3 72.735 0 59.523-29.8 103.96-29.878 44.462-79.348 63.786 66.165 87.4 130.41 176.36zm-1056-0.49v0.071zm-607.18 0.071 293.12-431.49h-235.87v-92.411h413l-358.08 523.9zm2304.5-0.071-164.14-328.3-164.15 328.3h-108.89l273.04-523.9 273.04 523.9zm-2110.3 0 358.09-523.9h112.17l-293.13 431.5h235.88v92.409z" fill="#4fe070"/>
 </g>
</svg>
